<svg width="1920" height="903" viewBox="0 0 1920 903" fill="none" xmlns="http://www.w3.org/2000/svg">
<g clip-path="url(#clip0_122_196)">
<rect width="1920" height="903" fill="#111111"/>
<line x1="1860.5" y1="5.70326e-08" x2="1860.5" y2="920" stroke="url(#paint0_linear_122_196)"/>
<line x1="60.5" y1="5.70326e-08" x2="60.5" y2="920" stroke="url(#paint1_linear_122_196)"/>
<line x1="500.818" y1="5.70326e-08" x2="500.818" y2="920" stroke="url(#paint2_linear_122_196)"/>
<line x1="992.818" y1="5.70326e-08" x2="992.818" y2="920" stroke="url(#paint3_linear_122_196)"/>
<line x1="1408.45" y1="5.70326e-08" x2="1408.45" y2="920" stroke="url(#paint4_linear_122_196)"/>
<line y1="259.5" x2="1920" y2="259.5" stroke="#333333"/>
<line y1="499.211" x2="1920" y2="499.211" stroke="#333333"/>
</g>
<defs>
<linearGradient id="paint0_linear_122_196" x1="1859.5" y1="-5.70326e-08" x2="1859.5" y2="920" gradientUnits="userSpaceOnUse">
<stop stop-color="#666666" stop-opacity="0"/>
<stop offset="0.5" stop-color="#666666"/>
<stop offset="1" stop-color="#666666" stop-opacity="0"/>
</linearGradient>
<linearGradient id="paint1_linear_122_196" x1="59.5" y1="-5.70326e-08" x2="59.4999" y2="920" gradientUnits="userSpaceOnUse">
<stop stop-color="#666666" stop-opacity="0"/>
<stop offset="0.5" stop-color="#666666"/>
<stop offset="1" stop-color="#666666" stop-opacity="0"/>
</linearGradient>
<linearGradient id="paint2_linear_122_196" x1="499.818" y1="-5.70326e-08" x2="499.818" y2="920" gradientUnits="userSpaceOnUse">
<stop stop-color="#666666" stop-opacity="0"/>
<stop offset="0.5" stop-color="#666666"/>
<stop offset="1" stop-color="#666666" stop-opacity="0"/>
</linearGradient>
<linearGradient id="paint3_linear_122_196" x1="991.818" y1="-5.70326e-08" x2="991.818" y2="920" gradientUnits="userSpaceOnUse">
<stop stop-color="#666666" stop-opacity="0"/>
<stop offset="0.5" stop-color="#666666"/>
<stop offset="1" stop-color="#666666" stop-opacity="0"/>
</linearGradient>
<linearGradient id="paint4_linear_122_196" x1="1407.45" y1="-5.70326e-08" x2="1407.45" y2="920" gradientUnits="userSpaceOnUse">
<stop stop-color="#666666" stop-opacity="0"/>
<stop offset="0.5" stop-color="#666666"/>
<stop offset="1" stop-color="#666666" stop-opacity="0"/>
</linearGradient>
<clipPath id="clip0_122_196">
<rect width="1920" height="903" fill="white"/>
</clipPath>
</defs>
</svg>
