<svg width="24" height="24" viewBox="0 0 24 24" fill="none" xmlns="http://www.w3.org/2000/svg">
<rect width="24" height="24" fill="#009D53"/>
<path d="M9.1875 18.75V15.0938C9.1875 14.628 9.5655 14.25 10.0312 14.25H11.7188C12.1845 14.25 12.5625 14.628 12.5625 15.0938V18.75M12.5625 18.75H15.9375V5.65875M12.5625 18.75H18.1875V11.0625M15.9375 5.65875L17.0625 5.25M15.9375 5.65875L8.0625 8.523M18.1875 11.0625L15.9375 10.3125M18.1875 11.0625L19.3125 11.4375M4.6875 18.75H5.8125M5.8125 18.75H19.3125M5.8125 18.75V5.25H8.0625V8.523M4.6875 9.75L8.0625 8.523" stroke="white" stroke-linecap="round" stroke-linejoin="round"/>
</svg>
