<svg width="48" height="48" viewBox="0 0 48 48" fill="none" xmlns="http://www.w3.org/2000/svg">
<rect width="48" height="48" fill="#009D53"/>
<path d="M7.75 39H40.25M10.25 9V39M27.75 9V39M37.75 16.5V39M15.25 15.25H16.5M15.25 20.25H16.5M15.25 25.25H16.5M21.5 15.25H22.75M21.5 20.25H22.75M21.5 25.25H22.75M15.25 39V33.375C15.25 32.34 16.09 31.5 17.125 31.5H20.875C21.91 31.5 22.75 32.34 22.75 33.375V39M9 9H29M27.75 16.5H39M32.75 22.75H32.7633V22.7633H32.75V22.75ZM32.75 27.75H32.7633V27.7633H32.75V27.75ZM32.75 32.75H32.7633V32.7633H32.75V32.75Z" stroke="white" stroke-width="1.5" stroke-linecap="round" stroke-linejoin="round"/>
</svg>
